<mxfile host="app.diagrams.net" modified="2024-04-14T17:26:10.211Z" agent="Mozilla/5.0 (Windows NT 10.0; Win64; x64) AppleWebKit/537.36 (KHTML, like Gecko) Chrome/123.0.0.0 Safari/537.36" etag="zzlF7y_30gxvIBDmlJon" version="24.2.5" type="device">
  <diagram name="Page-1" id="OzqEOh84kzww0hnXRWNO">
    <mxGraphModel dx="989" dy="514" grid="1" gridSize="10" guides="1" tooltips="1" connect="1" arrows="1" fold="1" page="1" pageScale="1" pageWidth="850" pageHeight="1100" math="0" shadow="0">
      <root>
        <mxCell id="0" />
        <mxCell id="1" parent="0" />
        <mxCell id="BMBtJ6IH4CFcKrM41wB4-1" value="Unauthenticated User" style="shape=umlActor;html=1;verticalLabelPosition=bottom;verticalAlign=top;align=center;" vertex="1" parent="1">
          <mxGeometry x="159" y="160" width="30" height="60" as="geometry" />
        </mxCell>
        <mxCell id="BMBtJ6IH4CFcKrM41wB4-2" value="Supervisor" style="shape=umlActor;html=1;verticalLabelPosition=bottom;verticalAlign=top;align=center;" vertex="1" parent="1">
          <mxGeometry x="159" y="300" width="30" height="60" as="geometry" />
        </mxCell>
        <mxCell id="BMBtJ6IH4CFcKrM41wB4-5" value="Administrator" style="shape=umlActor;html=1;verticalLabelPosition=bottom;verticalAlign=top;align=center;" vertex="1" parent="1">
          <mxGeometry x="159" y="440" width="30" height="60" as="geometry" />
        </mxCell>
        <mxCell id="BMBtJ6IH4CFcKrM41wB4-6" value="" style="edgeStyle=none;html=1;endArrow=block;endFill=0;endSize=12;verticalAlign=bottom;rounded=0;exitX=0.5;exitY=0;exitDx=0;exitDy=0;exitPerimeter=0;" edge="1" parent="1" source="BMBtJ6IH4CFcKrM41wB4-5">
          <mxGeometry width="160" relative="1" as="geometry">
            <mxPoint x="339" y="270" as="sourcePoint" />
            <mxPoint x="174" y="380" as="targetPoint" />
          </mxGeometry>
        </mxCell>
        <mxCell id="BMBtJ6IH4CFcKrM41wB4-7" value="RMS" style="shape=rect;html=1;verticalAlign=top;fontStyle=1;whiteSpace=wrap;align=center;" vertex="1" parent="1">
          <mxGeometry x="250" y="120" width="370" height="450" as="geometry" />
        </mxCell>
        <mxCell id="BMBtJ6IH4CFcKrM41wB4-8" value="Login" style="ellipse;whiteSpace=wrap;html=1;" vertex="1" parent="1">
          <mxGeometry x="390" y="165" width="100" height="50" as="geometry" />
        </mxCell>
        <mxCell id="BMBtJ6IH4CFcKrM41wB4-9" value="" style="edgeStyle=orthogonalEdgeStyle;rounded=0;orthogonalLoop=1;jettySize=auto;html=1;entryX=0;entryY=0.5;entryDx=0;entryDy=0;exitX=0.5;exitY=0.5;exitDx=0;exitDy=0;exitPerimeter=0;endArrow=none;endFill=0;" edge="1" parent="1" source="BMBtJ6IH4CFcKrM41wB4-1" target="BMBtJ6IH4CFcKrM41wB4-8">
          <mxGeometry relative="1" as="geometry" />
        </mxCell>
        <mxCell id="BMBtJ6IH4CFcKrM41wB4-10" value="View Profile" style="ellipse;whiteSpace=wrap;html=1;" vertex="1" parent="1">
          <mxGeometry x="270" y="230" width="100" height="50" as="geometry" />
        </mxCell>
        <mxCell id="BMBtJ6IH4CFcKrM41wB4-11" value="Update Profile" style="ellipse;whiteSpace=wrap;html=1;" vertex="1" parent="1">
          <mxGeometry x="390" y="270" width="100" height="50" as="geometry" />
        </mxCell>
        <mxCell id="BMBtJ6IH4CFcKrM41wB4-12" value="" style="rounded=0;orthogonalLoop=1;jettySize=auto;html=1;entryX=0;entryY=1;entryDx=0;entryDy=0;exitX=0.5;exitY=0.5;exitDx=0;exitDy=0;exitPerimeter=0;endArrow=none;endFill=0;" edge="1" parent="1" source="BMBtJ6IH4CFcKrM41wB4-2" target="BMBtJ6IH4CFcKrM41wB4-10">
          <mxGeometry relative="1" as="geometry">
            <mxPoint x="130" y="200" as="sourcePoint" />
            <mxPoint x="400" y="200" as="targetPoint" />
          </mxGeometry>
        </mxCell>
        <mxCell id="BMBtJ6IH4CFcKrM41wB4-13" value="" style="rounded=0;orthogonalLoop=1;jettySize=auto;html=1;entryX=0;entryY=0.5;entryDx=0;entryDy=0;exitX=0.5;exitY=0.5;exitDx=0;exitDy=0;exitPerimeter=0;endArrow=none;endFill=0;" edge="1" parent="1" source="BMBtJ6IH4CFcKrM41wB4-2" target="BMBtJ6IH4CFcKrM41wB4-11">
          <mxGeometry relative="1" as="geometry">
            <mxPoint x="115" y="350" as="sourcePoint" />
            <mxPoint x="330" y="275" as="targetPoint" />
          </mxGeometry>
        </mxCell>
        <mxCell id="BMBtJ6IH4CFcKrM41wB4-14" value="Manage User" style="ellipse;whiteSpace=wrap;html=1;" vertex="1" parent="1">
          <mxGeometry x="270" y="430" width="100" height="50" as="geometry" />
        </mxCell>
        <mxCell id="BMBtJ6IH4CFcKrM41wB4-15" value="" style="rounded=0;orthogonalLoop=1;jettySize=auto;html=1;entryX=0;entryY=0.5;entryDx=0;entryDy=0;exitX=0.5;exitY=0.5;exitDx=0;exitDy=0;exitPerimeter=0;endArrow=none;endFill=0;" edge="1" parent="1" source="BMBtJ6IH4CFcKrM41wB4-5" target="BMBtJ6IH4CFcKrM41wB4-14">
          <mxGeometry relative="1" as="geometry">
            <mxPoint x="115" y="350" as="sourcePoint" />
            <mxPoint x="295" y="283" as="targetPoint" />
          </mxGeometry>
        </mxCell>
        <mxCell id="BMBtJ6IH4CFcKrM41wB4-16" value="View User List" style="ellipse;whiteSpace=wrap;html=1;" vertex="1" parent="1">
          <mxGeometry x="340" y="350" width="100" height="50" as="geometry" />
        </mxCell>
        <mxCell id="BMBtJ6IH4CFcKrM41wB4-17" value="View User Information" style="ellipse;whiteSpace=wrap;html=1;" vertex="1" parent="1">
          <mxGeometry x="450" y="370" width="100" height="50" as="geometry" />
        </mxCell>
        <mxCell id="BMBtJ6IH4CFcKrM41wB4-18" value="Create User" style="ellipse;whiteSpace=wrap;html=1;" vertex="1" parent="1">
          <mxGeometry x="470" y="430" width="100" height="50" as="geometry" />
        </mxCell>
        <mxCell id="BMBtJ6IH4CFcKrM41wB4-19" value="Update User" style="ellipse;whiteSpace=wrap;html=1;" vertex="1" parent="1">
          <mxGeometry x="450" y="490" width="100" height="50" as="geometry" />
        </mxCell>
        <mxCell id="BMBtJ6IH4CFcKrM41wB4-20" value="Delete User" style="ellipse;whiteSpace=wrap;html=1;" vertex="1" parent="1">
          <mxGeometry x="340" y="500" width="100" height="50" as="geometry" />
        </mxCell>
        <mxCell id="BMBtJ6IH4CFcKrM41wB4-21" value="" style="edgeStyle=none;html=1;endArrow=block;endFill=0;endSize=12;verticalAlign=bottom;rounded=0;entryX=0.5;entryY=0;entryDx=0;entryDy=0;exitX=0;exitY=1;exitDx=0;exitDy=0;" edge="1" parent="1" source="BMBtJ6IH4CFcKrM41wB4-16" target="BMBtJ6IH4CFcKrM41wB4-14">
          <mxGeometry width="160" relative="1" as="geometry">
            <mxPoint x="220" y="300" as="sourcePoint" />
            <mxPoint x="380" y="300" as="targetPoint" />
          </mxGeometry>
        </mxCell>
        <mxCell id="BMBtJ6IH4CFcKrM41wB4-22" value="" style="edgeStyle=none;html=1;endArrow=block;endFill=0;endSize=12;verticalAlign=bottom;rounded=0;entryX=1;entryY=0;entryDx=0;entryDy=0;exitX=0;exitY=0.5;exitDx=0;exitDy=0;" edge="1" parent="1" source="BMBtJ6IH4CFcKrM41wB4-17" target="BMBtJ6IH4CFcKrM41wB4-14">
          <mxGeometry width="160" relative="1" as="geometry">
            <mxPoint x="400" y="410" as="sourcePoint" />
            <mxPoint x="330" y="440" as="targetPoint" />
          </mxGeometry>
        </mxCell>
        <mxCell id="BMBtJ6IH4CFcKrM41wB4-23" value="" style="edgeStyle=none;html=1;endArrow=block;endFill=0;endSize=12;verticalAlign=bottom;rounded=0;entryX=1;entryY=0.5;entryDx=0;entryDy=0;exitX=0;exitY=0.5;exitDx=0;exitDy=0;" edge="1" parent="1" source="BMBtJ6IH4CFcKrM41wB4-18" target="BMBtJ6IH4CFcKrM41wB4-14">
          <mxGeometry width="160" relative="1" as="geometry">
            <mxPoint x="460" y="405" as="sourcePoint" />
            <mxPoint x="365" y="447" as="targetPoint" />
          </mxGeometry>
        </mxCell>
        <mxCell id="BMBtJ6IH4CFcKrM41wB4-24" value="" style="edgeStyle=none;html=1;endArrow=block;endFill=0;endSize=12;verticalAlign=bottom;rounded=0;entryX=1;entryY=1;entryDx=0;entryDy=0;exitX=0;exitY=0;exitDx=0;exitDy=0;" edge="1" parent="1" source="BMBtJ6IH4CFcKrM41wB4-19" target="BMBtJ6IH4CFcKrM41wB4-14">
          <mxGeometry width="160" relative="1" as="geometry">
            <mxPoint x="480" y="465" as="sourcePoint" />
            <mxPoint x="380" y="465" as="targetPoint" />
          </mxGeometry>
        </mxCell>
        <mxCell id="BMBtJ6IH4CFcKrM41wB4-25" value="" style="edgeStyle=none;html=1;endArrow=block;endFill=0;endSize=12;verticalAlign=bottom;rounded=0;entryX=0.5;entryY=1;entryDx=0;entryDy=0;exitX=0;exitY=0;exitDx=0;exitDy=0;" edge="1" parent="1" source="BMBtJ6IH4CFcKrM41wB4-20" target="BMBtJ6IH4CFcKrM41wB4-14">
          <mxGeometry width="160" relative="1" as="geometry">
            <mxPoint x="475" y="507" as="sourcePoint" />
            <mxPoint x="365" y="483" as="targetPoint" />
          </mxGeometry>
        </mxCell>
      </root>
    </mxGraphModel>
  </diagram>
</mxfile>
